<svg width="500" height="500" viewBox="0 0 500 500" fill="none" xmlns="http://www.w3.org/2000/svg">
<path d="M30 15.0917C30 6.75677 23.2843 0 15 0C6.71572 0 0 6.75677 0 15.0917C0 22.6242 5.48525 28.8678 12.6562 30V19.4541H8.84766V15.0917H12.6562V11.7668C12.6562 7.98444 14.8957 5.89518 18.322 5.89518C19.9626 5.89518 21.6797 6.18994 21.6797 6.18994V9.90391H19.7883C17.925 9.90391 17.3438 11.0673 17.3438 12.262V15.0917H21.5039L20.8389 19.4541H17.3438V30C24.5147 28.8678 30 22.6242 30 15.0917Z" fill="black"/>
<path d="M50 107.546C50 103.378 46.6421 100 42.5 100C38.3579 100 35 103.378 35 107.546C35 111.312 37.7426 114.434 41.3281 115V109.727H39.4238V107.546H41.3281V105.883C41.3281 103.992 42.4479 102.948 44.161 102.948C44.9813 102.948 45.8398 103.095 45.8398 103.095V104.952H44.8941C43.9625 104.952 43.6719 105.534 43.6719 106.131V107.546H45.752L45.4194 109.727H43.6719V115C47.2574 114.434 50 111.312 50 107.546Z" fill="black"/>
<path d="M65 2.70117C69.0078 2.70117 69.4824 2.71875 71.0586 2.78906C72.5234 2.85352 73.3145 3.09961 73.8418 3.30469C74.5391 3.57422 75.043 3.90234 75.5645 4.42383C76.0918 4.95117 76.4141 5.44922 76.6836 6.14648C76.8887 6.67383 77.1348 7.4707 77.1992 8.92969C77.2695 10.5117 77.2871 10.9863 77.2871 14.9883C77.2871 18.9961 77.2695 19.4707 77.1992 21.0469C77.1348 22.5117 76.8887 23.3027 76.6836 23.8301C76.4141 24.5273 76.0859 25.0313 75.5645 25.5527C75.0371 26.0801 74.5391 26.4023 73.8418 26.6719C73.3145 26.877 72.5176 27.123 71.0586 27.1875C69.4766 27.2578 69.002 27.2754 65 27.2754C60.9922 27.2754 60.5176 27.2578 58.9414 27.1875C57.4766 27.123 56.6855 26.877 56.1582 26.6719C55.4609 26.4023 54.957 26.0742 54.4355 25.5527C53.9082 25.0254 53.5859 24.5273 53.3164 23.8301C53.1113 23.3027 52.8652 22.5059 52.8008 21.0469C52.7305 19.4648 52.7129 18.9902 52.7129 14.9883C52.7129 10.9805 52.7305 10.5059 52.8008 8.92969C52.8652 7.46484 53.1113 6.67383 53.3164 6.14648C53.5859 5.44922 53.9141 4.94531 54.4355 4.42383C54.9629 3.89648 55.4609 3.57422 56.1582 3.30469C56.6855 3.09961 57.4824 2.85352 58.9414 2.78906C60.5176 2.71875 60.9922 2.70117 65 2.70117ZM65 0C60.9277 0 60.418 0.0175781 58.8184 0.0878906C57.2246 0.158203 56.1289 0.416016 55.1797 0.785156C54.1895 1.17187 53.3516 1.68164 52.5195 2.51953C51.6816 3.35156 51.1719 4.18945 50.7852 5.17383C50.416 6.12891 50.1582 7.21875 50.0879 8.8125C50.0176 10.418 50 10.9277 50 15C50 19.0723 50.0176 19.582 50.0879 21.1816C50.1582 22.7754 50.416 23.8711 50.7852 24.8203C51.1719 25.8105 51.6816 26.6484 52.5195 27.4805C53.3516 28.3125 54.1895 28.8281 55.1738 29.209C56.1289 29.5781 57.2188 29.8359 58.8125 29.9062C60.4121 29.9766 60.9219 29.9941 64.9941 29.9941C69.0664 29.9941 69.5762 29.9766 71.1758 29.9062C72.7695 29.8359 73.8652 29.5781 74.8145 29.209C75.7988 28.8281 76.6367 28.3125 77.4688 27.4805C78.3008 26.6484 78.8164 25.8105 79.1973 24.8262C79.5664 23.8711 79.8242 22.7813 79.8945 21.1875C79.9648 19.5879 79.9824 19.0781 79.9824 15.0059C79.9824 10.9336 79.9648 10.4238 79.8945 8.82422C79.8242 7.23047 79.5664 6.13477 79.1973 5.18555C78.8281 4.18945 78.3184 3.35156 77.4805 2.51953C76.6484 1.6875 75.8105 1.17188 74.8262 0.791016C73.8711 0.421875 72.7813 0.164063 71.1875 0.09375C69.582 0.0175781 69.0723 0 65 0Z" fill="black"/>
<path d="M65 7.29492C60.7461 7.29492 57.2949 10.7461 57.2949 15C57.2949 19.2539 60.7461 22.7051 65 22.7051C69.2539 22.7051 72.7051 19.2539 72.7051 15C72.7051 10.7461 69.2539 7.29492 65 7.29492ZM65 19.998C62.2402 19.998 60.002 17.7598 60.002 15C60.002 12.2402 62.2402 10.002 65 10.002C67.7598 10.002 69.998 12.2402 69.998 15C69.998 17.7598 67.7598 19.998 65 19.998Z" fill="black"/>
<path d="M74.8086 6.99024C74.8086 7.98633 74 8.78907 73.0098 8.78907C72.0137 8.78907 71.2109 7.98047 71.2109 6.99024C71.2109 5.99414 72.0195 5.19141 73.0098 5.19141C74 5.19141 74.8086 6 74.8086 6.99024Z" fill="black"/>
<path d="M7.5 136.351C9.50391 136.351 9.74121 136.359 10.5293 136.395C11.2617 136.427 11.6572 136.55 11.9209 136.652C12.2695 136.787 12.5215 136.951 12.7822 137.212C13.0459 137.476 13.207 137.725 13.3418 138.073C13.4443 138.337 13.5674 138.735 13.5996 139.465C13.6348 140.256 13.6436 140.493 13.6436 142.494C13.6436 144.498 13.6348 144.735 13.5996 145.523C13.5674 146.256 13.4443 146.651 13.3418 146.915C13.207 147.264 13.043 147.516 12.7822 147.776C12.5186 148.04 12.2695 148.201 11.9209 148.336C11.6572 148.438 11.2588 148.562 10.5293 148.594C9.73828 148.629 9.50098 148.638 7.5 148.638C5.49609 148.638 5.25879 148.629 4.4707 148.594C3.73828 148.562 3.34277 148.438 3.0791 148.336C2.73047 148.201 2.47852 148.037 2.21777 147.776C1.9541 147.513 1.79297 147.264 1.6582 146.915C1.55566 146.651 1.43262 146.253 1.40039 145.523C1.36523 144.732 1.35645 144.495 1.35645 142.494C1.35645 140.49 1.36523 140.253 1.40039 139.465C1.43262 138.732 1.55566 138.337 1.6582 138.073C1.79297 137.725 1.95703 137.473 2.21777 137.212C2.48145 136.948 2.73047 136.787 3.0791 136.652C3.34277 136.55 3.74121 136.427 4.4707 136.395C5.25879 136.359 5.49609 136.351 7.5 136.351ZM7.5 135C5.46387 135 5.20898 135.009 4.40918 135.044C3.6123 135.079 3.06445 135.208 2.58984 135.393C2.09473 135.586 1.67578 135.841 1.25977 136.26C0.84082 136.676 0.585938 137.095 0.392578 137.587C0.208008 138.064 0.0791016 138.609 0.0439453 139.406C0.00878906 140.209 0 140.464 0 142.5C0 144.536 0.00878906 144.791 0.0439453 145.591C0.0791016 146.388 0.208008 146.936 0.392578 147.41C0.585938 147.905 0.84082 148.324 1.25977 148.74C1.67578 149.156 2.09473 149.414 2.58691 149.604C3.06445 149.789 3.60938 149.918 4.40625 149.953C5.20605 149.988 5.46094 149.997 7.49707 149.997C9.5332 149.997 9.78809 149.988 10.5879 149.953C11.3848 149.918 11.9326 149.789 12.4072 149.604C12.8994 149.414 13.3184 149.156 13.7344 148.74C14.1504 148.324 14.4082 147.905 14.5986 147.413C14.7832 146.936 14.9121 146.391 14.9473 145.594C14.9824 144.794 14.9912 144.539 14.9912 142.503C14.9912 140.467 14.9824 140.212 14.9473 139.412C14.9121 138.615 14.7832 138.067 14.5986 137.593C14.4141 137.095 14.1592 136.676 13.7402 136.26C13.3242 135.844 12.9053 135.586 12.4131 135.396C11.9355 135.211 11.3906 135.082 10.5938 135.047C9.79102 135.009 9.53613 135 7.5 135Z" fill="black"/>
<path d="M7.5 138.647C5.37305 138.647 3.64746 140.373 3.64746 142.5C3.64746 144.627 5.37305 146.353 7.5 146.353C9.62695 146.353 11.3525 144.627 11.3525 142.5C11.3525 140.373 9.62695 138.647 7.5 138.647ZM7.5 144.999C6.12012 144.999 5.00098 143.88 5.00098 142.5C5.00098 141.12 6.12012 140.001 7.5 140.001C8.87988 140.001 9.99902 141.12 9.99902 142.5C9.99902 143.88 8.87988 144.999 7.5 144.999Z" fill="black"/>
<path d="M12.4043 138.495C12.4043 138.993 12 139.395 11.5049 139.395C11.0068 139.395 10.6055 138.99 10.6055 138.495C10.6055 137.997 11.0098 137.596 11.5049 137.596C12 137.596 12.4043 138 12.4043 138.495Z" fill="black"/>
<g clip-path="url(#clip0_8_372)">
<path fill-rule="evenodd" clip-rule="evenodd" d="M115 0.625C111.439 0.626848 107.995 1.88807 105.284 4.18315C102.572 6.47823 100.77 9.65751 100.199 13.1525C99.629 16.6475 100.327 20.2303 102.17 23.2602C104.012 26.2902 106.879 28.5697 110.256 29.6912C111.001 29.8295 111.282 29.3677 111.282 28.975C111.282 28.5823 111.267 27.4438 111.262 26.199C107.089 27.1005 106.207 24.4381 106.207 24.4381C105.527 22.7093 104.543 22.2549 104.543 22.2549C103.182 21.3312 104.645 21.3485 104.645 21.3485C106.153 21.4547 106.945 22.8871 106.945 22.8871C108.281 25.1667 110.455 24.5073 111.309 24.122C111.443 23.1563 111.833 22.4994 112.263 22.1264C108.93 21.751 105.428 20.4717 105.428 14.7568C105.407 13.2746 105.96 11.8413 106.972 10.7534C106.818 10.378 106.304 8.86154 107.119 6.80179C107.119 6.80179 108.378 6.40169 111.245 8.33055C113.703 7.66203 116.297 7.66203 118.756 8.33055C121.62 6.40169 122.877 6.80179 122.877 6.80179C123.694 8.8566 123.18 10.373 123.026 10.7534C124.041 11.8415 124.596 13.2773 124.573 14.7617C124.573 20.489 121.063 21.751 117.725 22.119C118.262 22.5833 118.741 23.4897 118.741 24.8827C118.741 26.8782 118.724 28.4835 118.724 28.975C118.724 29.3726 118.994 29.8369 119.754 29.6912C123.132 28.5696 125.999 26.2896 127.841 23.2592C129.684 20.2287 130.382 16.6454 129.811 13.1501C129.24 9.65475 127.437 6.47544 124.724 4.18076C122.012 1.88607 118.567 0.625676 115.005 0.625H115Z" fill="black"/>
<path d="M105.68 22.04C105.648 22.1141 105.529 22.1364 105.432 22.0845C105.335 22.0326 105.263 21.9363 105.298 21.8597C105.333 21.7832 105.449 21.7634 105.546 21.8153C105.643 21.8672 105.718 21.9659 105.68 22.04Z" fill="black"/>
<path d="M106.289 22.7142C106.238 22.7399 106.179 22.7471 106.123 22.7345C106.066 22.7219 106.016 22.6903 105.981 22.645C105.884 22.5413 105.864 22.398 105.939 22.3338C106.013 22.2696 106.147 22.2993 106.244 22.403C106.341 22.5067 106.364 22.65 106.289 22.7142Z" fill="black"/>
<path d="M106.88 23.5712C106.788 23.6354 106.632 23.5712 106.545 23.4428C106.521 23.4198 106.502 23.3921 106.489 23.3616C106.476 23.331 106.469 23.2982 106.469 23.265C106.469 23.2318 106.476 23.1989 106.489 23.1684C106.502 23.1378 106.521 23.1102 106.545 23.0872C106.637 23.0254 106.793 23.0872 106.88 23.2131C106.967 23.3391 106.97 23.507 106.88 23.5712V23.5712Z" fill="black"/>
<path d="M107.683 24.4011C107.601 24.4924 107.434 24.4677 107.298 24.3443C107.161 24.2208 107.129 24.0528 107.211 23.9639C107.293 23.875 107.459 23.8997 107.601 24.0207C107.742 24.1417 107.769 24.3121 107.683 24.4011V24.4011Z" fill="black"/>
<path d="M108.808 24.8852C108.77 25.0013 108.602 25.0532 108.433 25.0038C108.264 24.9544 108.152 24.8161 108.184 24.6975C108.217 24.579 108.388 24.5247 108.559 24.579C108.731 24.6333 108.84 24.7642 108.808 24.8852Z" fill="black"/>
<path d="M110.035 24.9691C110.035 25.0901 109.896 25.1938 109.717 25.1963C109.538 25.1988 109.392 25.1 109.392 24.979C109.392 24.858 109.531 24.7542 109.71 24.7518C109.888 24.7493 110.035 24.8456 110.035 24.9691Z" fill="black"/>
<path d="M111.177 24.7789C111.2 24.8999 111.076 25.0259 110.897 25.0555C110.718 25.0851 110.561 25.0135 110.539 24.895C110.517 24.7764 110.646 24.648 110.82 24.6159C110.994 24.5838 111.155 24.6579 111.177 24.7789Z" fill="black"/>
</g>
<path fill-rule="evenodd" clip-rule="evenodd" d="M165 0C156.719 0 150 6.71909 150 15C150 23.2809 156.719 30 165 30C173.265 30 180 23.2809 180 15C180 6.71909 173.265 0 165 0ZM174.908 6.91432C176.697 9.09436 177.771 11.8763 177.804 14.8861C177.381 14.8048 173.151 13.9425 168.888 14.4794C168.791 14.2679 168.709 14.0401 168.612 13.8124C168.351 13.1942 168.059 12.5597 167.766 11.9577C172.484 10.038 174.631 7.27223 174.908 6.91432ZM165 2.21258C168.254 2.21258 171.231 3.43276 173.492 5.43384C173.265 5.75922 171.329 8.34599 166.773 10.0542C164.675 6.19848 162.348 3.0423 161.99 2.55423C162.95 2.32646 163.959 2.21258 165 2.21258ZM159.55 3.41648C159.892 3.87202 162.169 7.04447 164.3 10.8188C158.313 12.4133 153.026 12.3807 152.457 12.3807C153.286 8.41106 155.971 5.10846 159.55 3.41648ZM152.18 15.0163C152.18 14.8861 152.18 14.756 152.18 14.6258C152.733 14.6421 158.948 14.7234 165.342 12.8037C165.716 13.5195 166.057 14.2516 166.383 14.9837C166.22 15.0325 166.041 15.0814 165.879 15.1301C159.273 17.2613 155.759 23.0857 155.466 23.5737C153.433 21.3124 152.18 18.3026 152.18 15.0163ZM165 27.8199C162.039 27.8199 159.306 26.8113 157.142 25.1193C157.37 24.6475 159.973 19.6367 167.196 17.115C167.229 17.0987 167.245 17.0987 167.278 17.0825C169.083 21.7516 169.816 25.6724 170.011 26.795C168.465 27.462 166.773 27.8199 165 27.8199ZM172.142 25.6237C172.012 24.8427 171.329 21.1009 169.653 16.4967C173.671 15.8622 177.185 16.9035 177.625 17.0499C177.072 20.6128 175.022 23.6876 172.142 25.6237Z" fill="black"/>
<path d="M19.269 50L20 50.7431L1.505 68.5L20 86.2569L19.269 87L0 68.5L19.269 50Z" fill="white"/>
<path d="M19.269 50L20 50.7431L1.505 68.5L20 86.2569L19.269 87L0 68.5L19.269 50Z" stroke="black"/>
<path d="M30.731 87L30 86.2569L48.495 68.5L30 50.7431L30.731 50L50 68.5L30.731 87Z" fill="white"/>
<path d="M30.731 87L30 86.2569L48.495 68.5L30 50.7431L30.731 50L50 68.5L30.731 87Z" stroke="black"/>
<path d="M120.44 50H116.977C116.668 50 116.417 50.2495 116.417 50.5572V64.0339C116.417 64.3416 116.668 64.5911 116.977 64.5911H120.44C120.749 64.5911 121 64.3416 121 64.0339V50.5572C121 50.2495 120.749 50 120.44 50Z" fill="white"/>
<path d="M114.023 50H110.56C110.251 50 110 50.2495 110 50.5572V64.0339C110 64.3416 110.251 64.5911 110.56 64.5911H114.023C114.333 64.5911 114.583 64.3416 114.583 64.0339V50.5572C114.583 50.2495 114.333 50 114.023 50Z" fill="white"/>
<path fill-rule="evenodd" clip-rule="evenodd" d="M90.2564 64.5651C90.1735 64.6198 90.0685 64.5852 90.022 64.4876C90.0076 64.4574 90.0001 64.424 90 64.39V50.2006C90 50.0912 90.077 50 90.1718 50C90.2014 50 90.231 50.0091 90.2564 50.0255L100.824 56.9442C100.878 56.9825 100.923 57.0346 100.953 57.0959C100.984 57.1572 101 57.2257 101 57.2953C101 57.3649 100.984 57.4335 100.953 57.4947C100.923 57.556 100.878 57.6081 100.824 57.6464L90.2555 64.5651H90.2564Z" fill="white"/>
<circle cx="57" cy="57" r="7" fill="white"/>
<circle cx="77" cy="57" r="5" stroke="white" stroke-width="4"/>
<circle cx="217.5" cy="17.5" r="17.5" fill="black"/>
<g clip-path="url(#clip1_8_372)">
<path d="M219.558 23.6457L219.542 16.8986L215.558 16.7645L215.084 23.4999C214.721 23.5649 214.45 23.8707 214.429 24.2391L213.97 28.3996C213.914 28.923 214.229 29.3811 214.652 29.3954L219.59 29.5592C220.016 29.5711 220.354 29.1423 220.34 28.6092L220.176 24.4423C220.186 24.0639 219.928 23.7311 219.559 23.6457L219.558 23.6457Z" fill="white"/>
<path d="M221.275 9.98921L214.668 9.75704C214.404 9.74997 214.157 9.62553 213.993 9.41815C213.656 8.96294 213.129 8.68798 212.562 8.67193C211.528 8.63834 210.662 9.44823 210.626 10.4819L210.547 12.8188C210.515 13.852 211.324 14.7171 212.357 14.7549C212.922 14.7752 213.464 14.5375 213.833 14.1091C214.009 13.9126 214.265 13.805 214.529 13.8163C214.676 13.8213 214.815 13.8843 214.915 13.9917C215.015 14.099 215.069 14.2419 215.064 14.3889L215.017 15.7881L220.148 15.9609L220.188 14.5493C220.192 14.4029 220.255 14.2639 220.362 14.1642C220.469 14.0644 220.611 14.0109 220.758 14.0164L224.771 14.1515L224.778 13.7359C224.808 12.7756 224.457 11.8415 223.8 11.139C223.144 10.4366 222.235 10.0235 221.275 9.98938L221.275 9.98921Z" fill="white"/>
</g>
<path fill-rule="evenodd" clip-rule="evenodd" d="M267.872 15.8116C269.2 14.2436 270 12.2153 270 10C270 5.02944 265.971 1 261 1C256.029 1 252 5.02944 252 10C252 14.9706 256.029 19 261 19C263.215 19 265.244 18.1996 266.812 16.8723L269.47 19.5303C269.763 19.8232 270.237 19.8232 270.53 19.5303C270.823 19.2374 270.823 18.7626 270.53 18.4697L267.872 15.8116ZM268.5 10C268.5 14.1421 265.142 17.5 261 17.5C256.858 17.5 253.5 14.1421 253.5 10C253.5 5.85786 256.858 2.5 261 2.5C265.142 2.5 268.5 5.85786 268.5 10Z" fill="black"/>
<path fill-rule="evenodd" clip-rule="evenodd" d="M255.699 32.9999L260.097 28.7846C261.161 27.7652 262.839 27.7652 263.903 28.7846L268.301 32.9999H270.847C271.456 32.9999 271.923 33.5389 271.837 34.1413L270.368 44.4241C270.157 45.9021 268.891 46.9999 267.398 46.9999H256.602C255.109 46.9999 253.843 45.9021 253.632 44.4241L252.163 34.1413C252.077 33.5389 252.544 32.9999 253.153 32.9999H255.699ZM261.135 29.8675C261.619 29.4042 262.381 29.4042 262.865 29.8675L266.133 32.9999H257.867L261.135 29.8675ZM253.73 34.4999L255.117 44.212C255.223 44.951 255.855 45.4999 256.602 45.4999H267.398C268.145 45.4999 268.777 44.951 268.883 44.212L270.27 34.4999H253.73Z" fill="black"/>
<path fill-rule="evenodd" clip-rule="evenodd" d="M258 37.25C258.414 37.25 258.75 37.5858 258.75 38V42C258.75 42.4142 258.414 42.75 258 42.75C257.586 42.75 257.25 42.4142 257.25 42V38C257.25 37.5858 257.586 37.25 258 37.25Z" fill="black"/>
<path fill-rule="evenodd" clip-rule="evenodd" d="M262 37.25C262.414 37.25 262.75 37.5858 262.75 38V42C262.75 42.4142 262.414 42.75 262 42.75C261.586 42.75 261.25 42.4142 261.25 42V38C261.25 37.5858 261.586 37.25 262 37.25Z" fill="black"/>
<path fill-rule="evenodd" clip-rule="evenodd" d="M266 37.25C266.414 37.25 266.75 37.5858 266.75 38V42C266.75 42.4142 266.414 42.75 266 42.75C265.586 42.75 265.25 42.4142 265.25 42V38C265.25 37.5858 265.586 37.25 266 37.25Z" fill="black"/>
<path fill-rule="evenodd" clip-rule="evenodd" d="M312 10.5C313.933 10.5 315.5 8.933 315.5 7C315.5 5.067 313.933 3.5 312 3.5C310.067 3.5 308.5 5.067 308.5 7C308.5 8.933 310.067 10.5 312 10.5ZM312 12C314.761 12 317 9.76142 317 7C317 4.23858 314.761 2 312 2C309.239 2 307 4.23858 307 7C307 9.76142 309.239 12 312 12Z" fill="black"/>
<path fill-rule="evenodd" clip-rule="evenodd" d="M309 15.75C306.653 15.75 304.75 17.6528 304.75 20V21C304.75 21.4142 304.414 21.75 304 21.75C303.586 21.75 303.25 21.4142 303.25 21V20C303.25 16.8244 305.824 14.25 309 14.25H315C318.176 14.25 320.75 16.8244 320.75 20V21C320.75 21.4142 320.414 21.75 320 21.75C319.586 21.75 319.25 21.4142 319.25 21V20C319.25 17.6528 317.347 15.75 315 15.75H309Z" fill="black"/>
<path fill-rule="evenodd" clip-rule="evenodd" d="M154.324 54.0834L156.89 51.6244C157.511 51.0298 158.489 51.0298 159.11 51.6244L161.676 54.0834H163.161C163.516 54.0834 163.788 54.3978 163.738 54.7492L162.881 60.7475C162.758 61.6097 162.02 62.2501 161.149 62.2501H154.851C153.98 62.2501 153.242 61.6097 153.119 60.7475L152.262 54.7492C152.212 54.3978 152.484 54.0834 152.839 54.0834H154.324ZM157.496 52.2562C157.778 51.9859 158.223 51.9859 158.505 52.2562L160.411 54.0834H155.589L157.496 52.2562ZM153.176 54.9584L153.985 60.6238C154.047 61.0549 154.416 61.3751 154.851 61.3751H161.149C161.584 61.3751 161.954 61.0549 162.015 60.6238L162.824 54.9584H153.176Z" fill="white"/>
<path fill-rule="evenodd" clip-rule="evenodd" d="M155.667 56.5625C155.908 56.5625 156.104 56.7584 156.104 57V59.3333C156.104 59.575 155.908 59.7708 155.667 59.7708C155.425 59.7708 155.229 59.575 155.229 59.3333V57C155.229 56.7584 155.425 56.5625 155.667 56.5625Z" fill="white"/>
<path fill-rule="evenodd" clip-rule="evenodd" d="M158 56.5625C158.242 56.5625 158.437 56.7584 158.437 57V59.3333C158.437 59.575 158.242 59.7708 158 59.7708C157.758 59.7708 157.562 59.575 157.562 59.3333V57C157.562 56.7584 157.758 56.5625 158 56.5625Z" fill="white"/>
<path fill-rule="evenodd" clip-rule="evenodd" d="M160.333 56.5625C160.575 56.5625 160.771 56.7584 160.771 57V59.3333C160.771 59.575 160.575 59.7708 160.333 59.7708C160.092 59.7708 159.896 59.575 159.896 59.3333V57C159.896 56.7584 160.092 56.5625 160.333 56.5625Z" fill="white"/>
<rect x="208.5" y="50" width="34" height="19" fill="#E9E9E9"/>
<path d="M201 59.5H225M225 59.5L218 52.5M225 59.5L218 66.5" stroke="#3D3D3F" stroke-width="1.5"/>
<g clip-path="url(#clip2_8_372)">
<path d="M14.7013 103.866C14.6165 103.547 14.4493 103.255 14.2166 103.021C13.9839 102.787 13.6937 102.618 13.3751 102.531C12.2024 102.216 7.51489 102.216 7.51489 102.216C7.51489 102.216 2.82739 102.216 1.65467 102.531C1.3361 102.618 1.04593 102.787 0.813197 103.021C0.580465 103.255 0.413334 103.547 0.328529 103.866C0.0148926 105.044 0.0148926 107.5 0.0148926 107.5C0.0148926 107.5 0.0148926 109.956 0.328529 111.134C0.413334 111.453 0.580465 111.744 0.813197 111.979C1.04593 112.213 1.3361 112.382 1.65467 112.469C2.82739 112.784 7.51489 112.784 7.51489 112.784C7.51489 112.784 12.2024 112.784 13.3751 112.469C13.6937 112.382 13.9839 112.213 14.2166 111.979C14.4493 111.744 14.6165 111.453 14.7013 111.134C15.0149 109.956 15.0149 107.5 15.0149 107.5C15.0149 107.5 15.0149 105.044 14.7013 103.866Z" fill="black"/>
<path d="M5.98071 109.73V105.27L9.90117 107.5L5.98071 109.73Z" fill="#FEFEFE"/>
</g>
<defs>
<clipPath id="clip0_8_372">
<rect width="30" height="30" fill="white" transform="translate(100)"/>
</clipPath>
<clipPath id="clip1_8_372">
<rect width="22" height="22" fill="white" transform="translate(217.524 2.45239) rotate(46.9289)"/>
</clipPath>
<clipPath id="clip2_8_372">
<rect width="15" height="15" fill="white" transform="translate(0 100)"/>
</clipPath>
</defs>
</svg>
