<svg width="30" height="30" viewBox="0 0 30 30" fill="none" xmlns="http://www.w3.org/2000/svg">
<mask id="mask0_2_2023" style="mask-type:alpha" maskUnits="userSpaceOnUse" x="0" y="0" width="30" height="30">
<path d="M15 30C23.2843 30 30 23.2843 30 15C30 6.71573 23.2843 0 15 0C6.71573 0 0 6.71573 0 15C0 23.2843 6.71573 30 15 30Z" fill="white"/>
</mask>
<g mask="url(#mask0_2_2023)">
<path d="M15 30C23.2843 30 30 23.2843 30 15C30 6.71573 23.2843 0 15 0C6.71573 0 0 6.71573 0 15C0 23.2843 6.71573 30 15 30Z" fill="#414141"/>
<path fill-rule="evenodd" clip-rule="evenodd" d="M14.9999 30.076H26.1539V26.523C26.1539 25.35 25.3519 23.866 24.3719 23.226L18.9369 19.926C18.5119 19.673 18.0239 19.306 18.0239 18.233C18.0239 17.53 18.6169 16.973 18.7959 16.753C19.6682 15.8065 20.1517 14.5661 20.1499 13.279V10.646C20.1499 7.792 17.8459 6.154 14.9999 6.154C12.1529 6.154 9.84795 7.792 9.84795 10.646V13.279C9.84795 14.623 10.3649 15.838 11.2039 16.753C11.3819 16.973 11.9749 17.53 11.9749 18.233C11.9749 19.307 11.4869 19.673 11.0619 19.925L5.62595 23.226C4.64695 23.866 3.84595 25.35 3.84595 26.523V30.076H14.9999Z" fill="#595959"/>
</g>
</svg>
